<?xml version="1.1" encoding="utf-8"?>
<svg  xmlns="http://www.w3.org/2000/svg" viewBox="0 0 280 57" style="enable-background:new 0 0 280 57" xml:space="preserve"><style>.st1{fill:#ff9e2c}.st3{fill:#070707}</style><path d="M4.9 45.4V11.3h8.8c1.9-.1 3.9.5 5.5 1.4 1.6 1 2.5 2.8 2.3 4.7v4.8c0 2.4-1.4 4.1-4.4 5 3.1.7 4.6 2.4 4.6 5v6.6c.1 1.9-.7 3.8-2.3 5-1.5 1.2-3.3 1.7-5.2 1.7l-9.3-.1zm9.6-22v-5.9c0-1.2-.7-1.8-2.1-1.8v9.5c1.5 0 2.1-.7 2.1-1.8zm0 15.9v-8.6c0-1.2-.7-1.8-2.1-1.8v12.3c1.5-.2 2.1-.7 2.1-1.9zm24.9 6.1h-6v-1.1c-.5 1-2 1.4-4.3 1.4-3.7 0-5.5-1.4-5.5-4.3V36c0-1.2.5-2.3 1.4-3.2 1.6-1.4 3.4-2.5 5.4-3.4 1.5-.8 2.3-1.4 2.3-1.9v-4.1c.1-.6-.3-1.2-.9-1.4h-.3c-.9 0-1.4 1.1-1.4 3.3 0 .4 0 1 .1 1.8s.1 1.4.1 1.8h-6.6v-5.6c0-3.7 2.7-5.6 8.1-5.6 5 0 7.6 2 7.6 5.9v21.8zm-6.8-5.1v-7.1c-1.5.4-2.3 1.1-2.3 2.1v5c-.1.6.3 1.2.9 1.3h.4c.5 0 1.1-.5 1.1-1v-.3h-.1zm24.2 5.1H50V23.2c.1-.5-.3-1.2-.8-1.3H49c-.5-.1-1.1.4-1.2.9v22.6H41V11.3h6.8v7.3c.8-.7 2.2-1 4.2-1 1.3 0 2.4.4 3.4 1.1.9.6 1.4 1.7 1.4 2.8v23.9zm1.6-11h6.8v5.9c0 .9.4 1.4 1.2 1.4.8 0 1.2-.9 1.2-2.7 0-2.3-.5-3.9-1.4-4.5-3.5-1.9-5.7-3.2-6.4-3.9-.8-.9-1.2-2.1-1.1-3.3v-3.7c0-3.9 2.6-5.9 7.9-5.9 5.1 0 7.7 1.9 7.7 5.6v5.4h-6.6l.2-3.3c0-2.3-.5-3.4-1.3-3.4s-1.3.7-1.3 2.2c-.1 1.2.1 2.3.5 3.4.4.7 2.4 2.1 6.2 4 1.5 1 2.4 2.7 2.3 4.5v4.1c0 3.9-2.7 5.9-8 5.9-5.2 0-7.9-1.9-7.9-5.6v-6.1zm33.1-.7h-9.1v6.5c0 .9.4 1.4 1.2 1.4.8 0 1.2-.5 1.2-1.4v-5.6h6.8v5.6c0 3.7-2.7 5.6-7.9 5.6-5.3 0-7.9-2-7.9-5.9V23.5c0-3.9 2.6-5.9 7.9-5.9 5.2 0 7.9 1.9 7.9 5.6v10.5zm-6.7-4.1v-6.3c.1-.6-.3-1.3-1-1.4-.6-.1-1.3.3-1.4 1v6.8l2.4-.1zm24.7 15.8h-3.6l-1-1.9c-1.4 1.4-3.2 2.2-5.2 2.3-1.7 0-3.3-.5-4.7-1.4-1.4-1-2.2-2.7-2-4.4V17.7c0-4.4 2.8-6.7 8.5-6.7 5.4 0 8 2 8 6v6.3h-6.8v-6.8c0-.5-.4-.8-1.1-.8-.7 0-1.1.3-1.1.8v23.7c0 .5.4.8 1.1.8.7 0 1.1-.3 1.1-.8v-6.4h-1.5v-5.2h8.3v16.8zm17.4-11.7h-9.1v6.5c0 .9.4 1.4 1.2 1.4.8 0 1.2-.5 1.2-1.4v-5.6h6.8v5.6c0 3.7-2.6 5.6-7.9 5.6s-7.9-2-7.9-5.9V23.5c0-3.9 2.6-5.9 7.9-5.9 5.2 0 7.9 1.9 7.9 5.6v10.5h-.1zm-6.7-4.1v-6.3c.1-.6-.3-1.3-1-1.4-.6-.1-1.3.3-1.4 1v6.8l2.4-.1zm15.1 15.8h-6.8V11.3h6.8v34.1z" style="fill:#1095b5"/><path class="st1" d="M219.8 25h-8.2v-2.9c0-1.8-.1-2.9-.2-3.4-.2-.5-.5-.7-1.1-.7-.5 0-.9.2-1 .6s-.3 1.4-.3 3v15.2c0 1.4.1 2.4.3 2.8s.5.7 1.1.7c.6 0 1-.3 1.2-.8s.3-1.5.3-3v-3.8h-1.7V28h9.6v17h-5.2l-.8-2.3c-.6 1-1.3 1.7-2.1 2.2s-1.9.7-3 .7c-1.4 0-2.7-.3-3.9-1s-2.1-1.5-2.7-2.5-1-2-1.2-3.1-.2-2.7-.2-4.9v-9.4c0-3 .2-5.2.5-6.6s1.3-2.6 2.8-3.8c1.5-1.1 3.5-1.7 6-1.7 2.4 0 4.4.5 6 1.5 1.6 1 2.6 2.2 3.1 3.5.5 1.4.7 3.3.7 5.9V25zM230.9 13.4v4.1h-8.1v-4.1h8.1zm0 5.7V45h-8.1V19.1h8.1zM241.6 19.1l-.3 3.4c1.1-2.4 2.8-3.7 5-3.9v9.1c-1.4 0-2.5.2-3.2.6s-1.1.9-1.2 1.6-.2 2.3-.2 4.8V45h-7.9V19.1h7.8zM256.2 13.4v4.1H248v-4.1h8.2zm0 5.7V45H248V19.1h8.2zM267.7 45.5v.5c.7 0 1.3.2 1.9.7s.9 1.1.9 1.9c0 1-.4 1.8-1.2 2.6s-1.8 1.1-2.9 1.1c-2 0-3.3-1-3.9-3.1h2.9c.2.5.5.8 1 .8.8 0 1.2-.4 1.2-1.2 0-.9-.5-1.3-1.6-1.3h-.5v-2.2c-1.5-.2-2.8-.6-3.8-1.2s-1.8-1.3-2.3-2.3-.7-2.5-.7-4.7v-1.2h7v1.6c0 1.4.1 2.3.3 2.7.2.4.5.6 1 .6.6 0 1-.1 1.2-.4s.3-.9.3-1.8c0-1.2-.1-2-.4-2.3s-1.8-1.2-4.6-2.8c-2.3-1.3-3.7-2.5-4.2-3.5-.5-1.1-.8-2.3-.8-3.8 0-2.1.3-3.6.8-4.6.5-1 1.5-1.7 2.8-2.3 1.3-.5 2.8-.8 4.6-.8 1.7 0 3.2.2 4.4.7 1.2.4 2.1 1 2.8 1.7.6.7 1 1.4 1.2 2 .1.6.2 1.6.2 2.9v1.5h-7V26c0-1.2-.1-2-.2-2.3-.1-.3-.5-.5-1-.5-.9 0-1.3.6-1.3 1.8 0 .8.1 1.4.2 1.7s.4.8 1 1.2c.6.4 1.7 1.1 3.4 1.9 2.3 1.1 3.8 2.2 4.5 3.2s1.1 2.4 1.1 4.3c0 2-.2 3.5-.7 4.6s-1.3 1.9-2.5 2.5-3.1 1-5.1 1.1z"/><g><path d="M164 1.8c.7-.2 1.7-.2 2.4-.2 5.4 0 10.8.7 16.2 1.1 1.7.1 2.6.9 2.8 2.7 1.2 8.9 2.5 17.8 3.8 26.7.2 1.6 0 2.1-1.7 1.9-6.1-.7-19.8-.7-20.3.3 3.7.5 13 1.4 12.9 2.3-.1 1-22.9-.1-33.3 1.6-1.8.3-2.3.2-2-1.8 1.6-10.4 3-20.7 4.5-31.1.2-1.2.5-2.3 1.8-2.4 3.4-.2 6.8-1 10.2-.8 0 .5-.3.8-.6 1-3.8 3.4-7.3 7-7.4 12.6 0 .5-.1 1-.4 1.4-2.1 3.4-1.8 7.3-2.2 11-.2 2.2 1.9 2.5 4 2.7 1.6.2 2.6-2.1 2-4.6-.1-.6.7-1.3.9-1.9.6-1.9.4-3.8 0-5.8-.5-2.5-.8-5 .3-7.4.2-.5.3-1.1.2-1.6-.4-1.6.2-2.8 1.3-4 1.1-1.2 4.2-3.6 4.6-3.7z" style="fill:#d02020"/><path class="st3" d="M139.2 40.3c2.3 4.2 5.7 5.3 9.9 4.5 3-.6 5.9-1.4 8.8-2 2.1-.4 4.2-.5 6.2.6 2.5 1.4 2.6 3.7.2 5.2-3.4 2.1-6.6 4.6-10.7 5.2-7 1.2-13.4-3.2-14.5-10.2-.2-1-.3-2 .1-3.3zM195.5 40.3c1.5 6.8-3.8 12.7-11 13-2.9.1-5.9 0-8.4-1.3-2.7-1.4-4.6-2-5.9-3.3-1.5-1.4-1.8-3.1-.3-4.6 1.1-1.1 2.5-1.5 4-1.5 2.4-.1 4.6.5 6.8 1.1 2.2.6 4.5 1.3 6.8 1.4 3.5 0 6.3-1.2 8-4.8zM163.1 2.4c-1.2 1-2.5 1.9-3.6 3.2-1 1.2-1.7 2.4-1.3 4 .1.5.1 1.2-.2 1.6-1.2 2.4-.9 5-.3 7.4.4 2 .6 3.9 0 5.8-.2.6-.4 1.3-.2 1.9.6 2.5-.2 3.8-2.7 4.6-2 .6-4.2-.6-4-2.7.4-3.7.1-7.6 2.2-11 .3-.4.4-.9.4-1.4.1-5.6 3.6-9.1 7.4-12.6.3-.3.6-.6.6-1 1.4-.6 3-.3 1.7.2z"/></g></svg>